<svg id="brand-icon" viewBox="0 0 57 57" fill="none" xmlns="http://www.w3.org/2000/svg">
<rect width="57" height="57" rx="12" fill="#73AB84"/>
<path d="M18.7501 34.5833L18.7501 25.2499C19.0428 24.2165 19.4302 23.6044 20.1651 23.0639C20.9035 22.5209 21.9206 22.5279 22.6942 23.0195C23.1264 23.2941 23.4741 23.5781 23.7842 23.9088C24.2988 24.4578 25.2226 24.4711 25.7473 23.9319C26.0526 23.6181 26.3924 23.342 26.8064 23.068C27.5815 22.555 28.5977 22.5283 29.3867 23.0197C29.7664 23.2562 30.0816 23.5003 30.3606 23.7782C30.9192 24.3344 32.0244 24.415 32.6185 23.8969C32.9374 23.6188 33.2734 23.3568 33.5818 23.1296C34.2646 22.6269 35.1945 22.687 35.8025 23.2779C36.3817 23.8407 37.0545 24.5749 37.4167 25.2499L37.4167 33.9999" stroke="#313131" stroke-width="2.5" stroke-linecap="round" stroke-linejoin="round"/>
<path d="M18.75 32.8333V36C18.75 38.7614 20.9886 41 23.75 41H32.4167C35.1781 41 37.4167 38.7614 37.4167 36V30.5" stroke="#313131" stroke-width="2.5" stroke-linecap="round"/>
<path d="M37.9167 36.3333C40.8623 36.3333 43.2501 33.9827 43.2501 31.0833C43.2501 28.1838 40.9167 25.8333 37.9167 25.8333C37.4563 25.8333 37.4167 25.8333 37.4167 25.8333" stroke="#313131" stroke-width="2.5" stroke-linecap="round"/>
<path d="M32.75 15.3333C32.75 16.7001 32.75 18.8333 32.75 18.8333" stroke="#313131" stroke-width="2.5" stroke-linecap="round" stroke-linejoin="round"/>
<path d="M28.0835 13V15.9167V18.8333" stroke="#313131" stroke-width="2.5" stroke-linecap="round" stroke-linejoin="round"/>
<path d="M23.4167 15.3333V18.8333" stroke="#313131" stroke-width="2.5" stroke-linecap="round" stroke-linejoin="round"/>
<path d="M18.75 32.8333C21.6667 32.8333 22.25 30.5 25.1667 30.5C28.2 30.5 27.9667 32.8333 31 32.8333C33.9167 32.8333 34.5 30.5 37.4167 30.5" stroke="#313131" stroke-width="2.5" stroke-linecap="round" stroke-linejoin="round"/>
</svg>
