<svg width="48" height="48" viewBox="0 0 48 48" fill="none" xmlns="http://www.w3.org/2000/svg">
<path d="M12.0002 33.6665L12.0002 22.9998C12.3564 21.742 12.8355 21.0303 13.7863 20.382C14.5435 19.8657 15.5471 19.8683 16.3318 20.3419C16.9872 20.7374 17.4776 21.1419 17.9117 21.6428C18.4045 22.2115 19.3303 22.2239 19.8352 21.666C20.2671 21.1887 20.7516 20.7924 21.3841 20.3918C22.1694 19.8945 23.1762 19.8692 23.9764 20.342C24.5796 20.6984 25.045 21.0627 25.4488 21.5054C25.9801 22.0878 27.0727 22.1569 27.6557 21.6263C28.1312 21.1937 28.6578 20.787 29.1141 20.4576C29.8014 19.9612 30.7287 20.021 31.3427 20.6057C32.034 21.264 32.8886 22.1709 33.3335 22.9998V32.9998" stroke="#313131" stroke-width="2.5" stroke-linecap="round" stroke-linejoin="round"/>
<path d="M12 31.6667V36C12 38.7614 14.2386 41 17 41H28.3333C31.0948 41 33.3333 38.7614 33.3333 36V29" stroke="#313131" stroke-width="2.5" stroke-linecap="round"/>
<path d="M33.9049 35.6665C37.2712 35.6665 40.0002 32.9802 40.0002 29.6665C40.0002 26.3528 37.3335 23.6665 33.9049 23.6665C33.3788 23.6665 33.3335 23.6665 33.3335 23.6665" stroke="#313131" stroke-width="2.5" stroke-linecap="round"/>
<path d="M28 11.6665C28 13.2286 28 15.6665 28 15.6665" stroke="#313131" stroke-width="2.5" stroke-linecap="round" stroke-linejoin="round"/>
<path d="M22.6665 9V12.3333V15.6667" stroke="#313131" stroke-width="2.5" stroke-linecap="round" stroke-linejoin="round"/>
<path d="M17.3335 11.6665V15.6665" stroke="#313131" stroke-width="2.5" stroke-linecap="round" stroke-linejoin="round"/>
<path d="M12 31.6667C15.3333 31.6667 16 29 19.3333 29C22.8 29 22.5333 31.6667 26 31.6667C29.3333 31.6667 30 29 33.3333 29" stroke="#313131" stroke-width="2.5" stroke-linecap="round" stroke-linejoin="round"/>
</svg>
