<svg
    id="logo" viewBox="0 0 32 36" fill="none"
    xmlns="http://www.w3.org/2000/svg"
>

    <path d="M2.00017 26.6665L2.00017 15.9998C2.35643 14.742 2.83551 14.0303 3.78626 13.382C4.54349 12.8657 5.54706 12.8683 6.33178 13.3419C6.98723 13.7374 7.47758 14.1419 7.91171 14.6428C8.40448 15.2115 9.33027 15.2239 9.83517 14.666C10.2671 14.1887 10.7516 13.7924 11.3841 13.3918C12.1694 12.8945 13.1762 12.8692 13.9764 13.342C14.5796 13.6984 15.045 14.0627 15.4488 14.5054C15.9801 15.0878 17.0727 15.1569 17.6557 14.6263C18.1312 14.1937 18.6578 13.787 19.1141 13.4576C19.8014 12.9612 20.7287 13.021 21.3427 13.6057C22.034 14.264 22.8886 15.1709 23.3335 15.9998L23.3335 25.9998"
      stroke="#000" stroke-width="2.5" stroke-linecap="round" stroke-linejoin="round"

      style="stroke: var(--dark-color, #000); stroke-width: var(--stroke-width, 2.5);"
    />

    <path d="M2 24.6667V29C2 31.7614 4.23858 34 7 34H18.3333C21.0948 34 23.3333 31.7614 23.3333 29V22"
      stroke="black" stroke-width="2.5" stroke-linecap="round"

      style="stroke: var(--dark-color, #000); stroke-width: var(--stroke-width, 2.5);"
    />

    <path d="M23.9049 28.6665C27.2712 28.6665 30.0002 25.9802 30.0002 22.6665C30.0002 19.3528 27.3335 16.6665 23.9049 16.6665C23.3788 16.6665 23.3335 16.6665 23.3335 16.6665"
      stroke="black" stroke-width="2.5" stroke-linecap="round"

      style="stroke: var(--dark-color, #000); stroke-width: var(--stroke-width, 2.5);"
    />

    <path d="M18 4.6665C18 6.2286 18 8.6665 18 8.6665"
      stroke="black" stroke-width="2.5" stroke-linecap="round" stroke-linejoin="round"

      style="stroke: var(--dark-color, #000); stroke-width: var(--stroke-width, 2.5);"
    />

    <path d="M12.6665 2V5.33332V8.66667"
      stroke="black" stroke-width="2.5" stroke-linecap="round" stroke-linejoin="round"

      style="stroke: var(--dark-color, #000); stroke-width: var(--stroke-width, 2.5);"
    />

    <path d="M7.3335 4.6665V8.6665"
      stroke="black" stroke-width="2.5" stroke-linecap="round" stroke-linejoin="round"

      style="stroke: var(--dark-color, #000); stroke-width: var(--stroke-width, 2.5);"
    />

    <path d="M2 24.6667C5.33333 24.6667 6 22 9.33333 22C12.8 22 12.5333 24.6667 16 24.6667C19.3333 24.6667 20 22 23.3333 22"
      stroke="black" stroke-width="2.5" stroke-linecap="round" stroke-linejoin="round"

      style="stroke: var(--dark-color, #000); stroke-width: var(--stroke-width, 2.5);"
    />
</svg>